<svg width="6" height="6" viewBox="0 0 6 6" fill="none" xmlns="http://www.w3.org/2000/svg">
<path d="M3.26666 2.68133C3.4399 2.85733 3.4399 3.14267 3.26666 3.31867L0.757275 5.868C0.584038 6.044 0.303165 6.044 0.129928 5.868C-0.0433093 5.69201 -0.0433093 5.40666 0.129928 5.23067L2.63932 2.68133C2.81255 2.50534 3.09342 2.50534 3.26666 2.68133Z" fill="#C4C4C4"/>
<path d="M2.73333 2.68133C2.90657 2.50534 3.18744 2.50534 3.36068 2.68133L5.87007 5.23067C6.0433 5.40666 6.0433 5.69201 5.87007 5.868C5.69683 6.044 5.41596 6.044 5.24272 5.868L2.73333 3.31867C2.5601 3.14267 2.5601 2.85733 2.73333 2.68133Z" fill="#C4C4C4"/>
<path d="M2.73333 3.31867C2.5601 3.14267 2.5601 2.85733 2.73333 2.68133L5.24273 0.131996C5.41596 -0.0439987 5.69684 -0.0439988 5.87007 0.131996C6.04331 0.307991 6.04331 0.593335 5.87007 0.76933L3.36069 3.31867C3.18745 3.49466 2.90657 3.49466 2.73333 3.31867Z" fill="#C4C4C4"/>
<path d="M3.26666 3.31867C3.09342 3.49466 2.81256 3.49466 2.63932 3.31867L0.129932 0.769331C-0.0433047 0.593336 -0.0433048 0.307992 0.129932 0.131997C0.303169 -0.0439983 0.584042 -0.0439983 0.757279 0.131997L3.26666 2.68133C3.4399 2.85733 3.4399 3.14267 3.26666 3.31867Z" fill="#C4C4C4"/>
</svg>
