<svg width="26" height="21" viewBox="0 0 26 21" fill="none" xmlns="http://www.w3.org/2000/svg">
<path d="M0 0.598699C0 0.260304 0.269124 0 0.603888 0H3.68897C3.99748 0 4.24034 0.240781 4.24034 0.546638C4.24034 0.852495 3.99748 1.09328 3.68897 1.09328H1.21434V2.25813H3.34108C3.64958 2.25813 3.89245 2.49892 3.89245 2.80477C3.89245 3.11063 3.64958 3.35141 3.34108 3.35141H1.21434V4.91323C1.21434 5.25163 0.945216 5.51193 0.610452 5.51193C0.269124 5.51193 0.0065644 5.24512 0.0065644 4.91323V0.598699H0Z" transform="translate(4.83765 5.50543)" fill="#242424"/>
<path d="M0.0664806 4.77657L1.98973 0.475054C2.12101 0.175705 2.37044 0 2.69864 0H2.77085C3.09905 0 3.33535 0.182213 3.4732 0.475054L5.39645 4.77657C5.43583 4.86117 5.46209 4.93926 5.46209 5.01735C5.46209 5.33623 5.21266 5.59653 4.88446 5.59653C4.6022 5.59653 4.41185 5.43384 4.30026 5.18004L3.93268 4.32104H1.504L1.11672 5.21909C1.0117 5.45336 0.808213 5.59653 0.558781 5.59653C0.243709 5.59653 0.000840557 5.34924 0.000840557 5.03688C-0.00572344 4.95228 0.0270966 4.86768 0.0664806 4.77657ZM3.47976 3.26681L2.71834 1.46421L1.95691 3.26681H3.47976Z" transform="translate(9.12329 5.41431)" fill="#242424"/>
<path d="M0 2.83731V2.8243C0 1.26898 1.23403 0 2.94067 0C4.64075 0 5.86165 1.25597 5.86165 2.81128V2.8243C5.86165 3.40347 5.67786 3.9436 5.37591 4.39262L5.61222 4.58785C5.73693 4.69848 5.83539 4.84816 5.83539 5.04338C5.83539 5.35575 5.58596 5.61605 5.27089 5.61605C5.10679 5.61605 4.96238 5.54447 4.87049 5.45336L4.56854 5.18655C4.1025 5.4859 3.54456 5.6551 2.92754 5.6551C1.2209 5.64859 0 4.38612 0 2.83731ZM2.86847 3.44902C2.86847 3.13666 3.1179 2.87636 3.43297 2.87636C3.59707 2.87636 3.70866 2.92842 3.83337 3.03905L4.43726 3.57918C4.52916 3.35792 4.58823 3.10412 4.58823 2.8308V2.81779C4.58823 1.88069 3.89245 1.09978 2.92098 1.09978C1.94294 1.09978 1.26685 1.86768 1.26685 2.80477V2.81779C1.26685 3.75488 1.96264 4.53579 2.93411 4.53579C3.20323 4.53579 3.4461 4.49024 3.65615 4.38612L3.07851 3.90456C2.96036 3.79393 2.86847 3.64425 2.86847 3.44902Z" transform="translate(15.0907 5.41431)" fill="#242424"/>
<path d="M4.08281 21C3.98435 21 3.88589 20.9805 3.78743 20.9414C3.51174 20.8243 3.32795 20.551 3.32795 20.2516V16.6529H1.75915C0.78768 16.6529 0 15.8655 0 14.9024V1.74403C0 0.780911 0.78768 0 1.75915 0H24.2408C25.2123 0 26 0.780911 26 1.74403V14.9024C26 15.8655 25.2123 16.6464 24.2408 16.6464H8.94673L4.60793 20.7852C4.46352 20.9284 4.27973 21 4.08281 21ZM1.75915 1.49675C1.62131 1.49675 1.50972 1.60738 1.50972 1.74403V14.9024C1.50972 15.039 1.62131 15.1497 1.75915 15.1497H4.08281C4.5029 15.1497 4.83767 15.4816 4.83767 15.898V18.4881L8.11967 15.3579C8.25751 15.2213 8.44787 15.1497 8.64479 15.1497H24.2408C24.3787 15.1497 24.4903 15.039 24.4903 14.9024V1.74403C24.4903 1.60738 24.3787 1.49675 24.2408 1.49675H1.75915Z" fill="#242424"/>
</svg>
