<svg width="20" height="20" viewBox="0 0 20 20" fill="none" xmlns="http://www.w3.org/2000/svg">
<path d="M3.30698 6.29457V0H2.13488H0.848626H0.342495C0.209302 0 0.102749 0.068877 0.102749 0.156886V1.28953C0.102749 1.37754 0.209302 1.44641 0.342495 1.44641H0.848626V6.29457H0.239746C0.106554 6.29457 0 6.36345 0 6.45146V7.47313C0 7.56114 0.106554 7.63002 0.239746 7.63002H3.91586C4.04905 7.63002 4.1556 7.56114 4.1556 7.47313V6.45146C4.1556 6.36345 4.04905 6.29457 3.91586 6.29457H3.30698Z" transform="translate(7.74036 7.91699)" fill="#242424"/>
<path d="M1.43467 2.9617C2.22702 2.9617 2.86934 2.2987 2.86934 1.48085C2.86934 0.662999 2.22702 0 1.43467 0C0.642325 0 0 0.662999 0 1.48085C0 2.2987 0.642325 2.9617 1.43467 2.9617Z" transform="translate(8.21985 4.19)" fill="#242424"/>
<path d="M9.81818 0C4.39535 0 0 4.41959 0 9.87234C0 15.3251 4.39535 19.7447 9.81818 19.7447C15.241 19.7447 19.6364 15.3251 19.6364 9.87234C19.6364 4.41959 15.2372 0 9.81818 0ZM9.81818 18.3748C5.15645 18.3748 1.36237 14.5598 1.36237 9.87234C1.36237 5.18489 5.15264 1.36606 9.81818 1.36606C14.4837 1.36606 18.274 5.18107 18.274 9.87234C18.274 14.5636 14.4799 18.3748 9.81818 18.3748Z" fill="#242424"/>
</svg>
