<svg width="12" height="15" viewBox="0 0 12 15" fill="none" xmlns="http://www.w3.org/2000/svg">
<path fill-rule="evenodd" clip-rule="evenodd" d="M11.3752 7.85531C11.3534 7.83484 11.3317 7.77342 11.3317 7.73248C11.4404 7.36398 11.4622 6.99549 11.3099 6.627C11.1142 6.1152 10.7444 5.72623 10.0702 5.64435C9.74393 5.6034 9.41768 5.62387 9.09143 5.62387C8.85218 5.62387 8.63469 5.62387 8.39544 5.62387C7.98219 5.62387 7.52544 5.62387 7.3732 5.62387C6.4162 5.6034 7.5037 4.47745 7.3297 1.61138C7.22095 -0.0263689 5.63321 -0.538166 5.11121 0.649204C4.95896 0.976754 4.87196 1.34525 4.76321 1.69327C4.34997 3.18772 3.54522 4.78453 2.17498 5.66482C1.60949 6.01284 1.02224 6.19709 0.369747 6.23803H0.326248C0.152249 6.23803 0 6.38133 0 6.54511V13.6489C0 13.8126 0.152249 13.9559 0.326248 13.9559H0.391497C2.65348 14.1811 2.63173 14.9795 5.15471 15C5.93771 15 6.7207 15 7.52544 15C7.96044 15 8.41719 15 8.85219 15C9.43943 15 9.89618 14.7953 10.1789 14.3654C10.5052 13.915 10.5704 13.4441 10.4182 12.9323C10.3964 12.8709 10.3964 12.83 10.4834 12.789C10.9402 12.5843 11.2012 12.2363 11.3317 11.8269C11.4404 11.4788 11.4187 11.1308 11.3099 10.8033C12.5932 9.9025 11.7667 8.0805 11.3752 7.85531Z" transform="translate(12 15) rotate(180)" fill="#EA352C"/>
</svg>
