<svg width="216" height="64" viewBox="0 0 216 64" fill="none" xmlns="http://www.w3.org/2000/svg">
<path d="M13.0333 25.4098H25.3878V0H-1.03579e-06V13.0446H13.0333V25.4098Z" transform="translate(25.5236)" fill="#FA4D34"/>
<path d="M25.3878 12.5011V5.18345e-07H0V25.5456H13.0333V12.5011H25.3878Z" transform="translate(0 13.0446)" fill="#E6392A"/>
<path d="M12.3545 -5.18345e-07H5.17897e-07V25.4098H25.5236V12.3652H12.3545V-5.18345e-07Z" transform="translate(13.0333 38.5902)" fill="#FA4D34"/>
<path d="M-5.17897e-07 13.1805V25.5456H25.3878V1.03669e-06H12.3545V13.1805H-5.17897e-07Z" transform="translate(38.5569 25.4098)" fill="#E6392A"/>
<path d="M2.07159e-06 22.1486V0H4.88749V17.8004H14.3909V22.1486H2.07159e-06Z" transform="translate(86.0742 12.9087)" fill="black"/>
<path d="M18.5996 22.1486L16.5632 17.3928H7.33124L5.29478 22.1486H-2.07159e-06L9.63922 0H14.3909L24.0302 22.1486H18.5996ZM11.9472 6.52229L9.09617 12.9087H14.6625L11.9472 6.52229Z" transform="translate(101.28 12.9087)" fill="black"/>
<path d="M-2.07159e-06 22.1486V18.7516L11.6757 4.21231H0.407293V0H18.3281V3.39703L6.78818 17.8004H18.5996V22.1486H-2.07159e-06Z" transform="translate(126.396 12.9087)" fill="black"/>
<path d="M18.5996 22.1486L16.5632 17.3928H7.33124L5.29479 22.1486H2.07159e-06L9.63922 0H14.3909L24.0302 22.1486H18.5996ZM11.9472 6.52229L9.09616 12.9087H14.6625L11.9472 6.52229Z" transform="translate(146.489 12.9087)" fill="black"/>
<path d="M17.9208 7.33758C17.9208 10.8705 16.5632 13.1805 13.7121 14.2675L19.2785 22.1486H13.1691L8.28158 15.0828H4.88749V22.1486H2.07159e-06V0H8.41736C11.8114 0 14.2552 0.543525 15.7486 1.76645C17.242 2.8535 17.9208 4.75584 17.9208 7.33758ZM11.9472 9.91932C12.626 9.3758 12.8975 8.56051 12.8975 7.33758C12.8975 6.11465 12.626 5.29936 11.9472 4.89172C11.2684 4.48408 10.1823 4.21231 8.55311 4.21231H4.88749V10.7346H8.55311C10.1823 10.7346 11.4041 10.4628 11.9472 9.91932Z" transform="translate(172.963 12.9087)" fill="black"/>
<path d="M17.1062 2.8535C19.2784 4.75584 20.2288 7.47346 20.2288 10.8705C20.2288 14.2675 19.1427 16.9851 17.1062 19.0234C15.0698 21.0616 11.9472 22.0127 7.60277 22.0127H-4.14318e-06V0H7.87429C11.9472 0 15.0698 0.951168 17.1062 2.8535ZM13.5764 16.034C14.7982 14.9469 15.3413 13.1805 15.3413 11.0064C15.3413 8.83227 14.7982 7.2017 13.5764 5.97877C12.3545 4.75584 10.4538 4.21232 8.01007 4.21232H5.29479V17.6645H8.41734C10.5896 17.8004 12.3545 17.2569 13.5764 16.034Z" transform="translate(195.771 12.9087)" fill="black"/>
<path d="M2.03646 7.74522L-1.03579e-06 0H1.08611L2.03646 3.94055C2.30799 4.89172 2.44374 5.84289 2.57951 6.65818C2.71527 5.84289 2.9868 4.89172 3.25832 3.94055L4.34444 0H5.43055L6.38089 3.94055C6.65242 4.89172 6.78819 5.84289 6.92395 6.65818C7.05971 5.84289 7.33124 4.89172 7.60277 3.94055L8.68887 0H9.77498L7.60277 7.74522H6.51665L5.56631 3.66879C5.29478 2.71762 5.15902 1.90233 5.02326 1.08705C4.88749 1.90233 4.75173 2.58174 4.4802 3.66879L3.3941 7.74522H2.03646Z" transform="translate(86.6172 44.8408)" fill="#7A7A7A"/>
<path d="M7.19548 3.94055C7.19548 6.65818 5.56631 8.01699 3.52985 8.01699C1.4934 8.01699 -2.07159e-06 6.38641 -2.07159e-06 4.07643C-2.07159e-06 1.63057 1.4934 -1.03669e-06 3.66562 -1.03669e-06C5.83784 -1.03669e-06 7.19548 1.63057 7.19548 3.94055ZM1.22187 4.07643C1.22187 5.70701 2.17222 7.2017 3.66562 7.2017C5.29479 7.2017 6.10936 5.70701 6.10936 3.94055C6.10936 2.44586 5.29479 0.815289 3.66562 0.815289C2.03646 0.815289 1.22187 2.44586 1.22187 4.07643Z" transform="translate(96.5279 44.569)" fill="#7A7A7A"/>
<path d="M2.07159e-06 0.135881C0.543057 0 1.22188 2.07338e-06 1.9007 2.07338e-06C2.9868 2.07338e-06 3.66562 0.135883 4.20867 0.679408C4.61596 1.08705 4.88749 1.49469 4.88749 2.1741C4.88749 3.26115 4.20868 3.94055 3.39409 4.21231C3.93715 4.48408 4.34443 5.0276 4.4802 5.84289C4.75172 6.92994 4.88749 7.74522 5.02325 8.01698H3.93715C3.80139 7.74522 3.66562 7.06582 3.39409 6.11465C3.12257 5.0276 2.71528 4.61996 1.9007 4.61996H0.950344V8.01698H2.07159e-06V0.135881ZM0.950344 3.66879H2.03646C3.12257 3.66879 3.80138 3.12527 3.80138 2.1741C3.80138 1.22293 3.12257 0.679408 2.03646 0.679408C1.4934 0.679408 1.22187 0.679406 1.08611 0.815287V3.66879H0.950344Z" transform="translate(105.081 44.7049)" fill="#7A7A7A"/>
<path d="M0 2.07338e-06H0.950341V6.92994H4.34443V7.74522H0V2.07338e-06Z" transform="translate(111.326 44.7049)" fill="#7A7A7A"/>
<path d="M0 0.135881C0.678818 0 1.35763 2.07338e-06 2.17222 2.07338e-06C3.66562 2.07338e-06 4.61597 0.27176 5.29479 0.951166C5.9736 1.63057 6.38089 2.44586 6.38089 3.80467C6.38089 5.0276 5.9736 6.11465 5.29479 6.79406C4.61597 7.47346 3.39409 7.8811 1.90069 7.8811C1.22188 7.8811 0.543053 7.8811 0.135762 7.74522V0.135881H0ZM0.950341 7.06582C1.22187 7.06582 1.62917 7.06582 1.90069 7.06582C4.07291 7.06582 5.15902 5.84289 5.15902 3.80467C5.15902 1.90234 4.07291 0.815287 2.03645 0.815287C1.4934 0.815287 1.08611 0.815285 0.81458 0.951166V7.06582H0.950341Z" transform="translate(116.757 44.7049)" fill="#7A7A7A"/>
<path d="M2.03645 7.74522L-2.07159e-06 0H1.08611L2.03645 3.94055C2.30798 4.89172 2.44375 5.84289 2.57951 6.65818C2.71527 5.84289 2.9868 4.89172 3.25833 3.94055L4.34444 0H5.43054L6.3809 3.94055C6.65242 4.89172 6.78818 5.84289 6.92394 6.65818C7.05971 5.84289 7.33123 4.89172 7.60276 3.94055L8.68887 0H9.77499L7.60276 7.74522H6.51666L5.56631 3.66879C5.29478 2.71762 5.15902 1.90233 5.02326 1.08705C4.8875 1.90233 4.75173 2.58174 4.4802 3.66879L3.39409 7.74522H2.03645Z" transform="translate(123.681 44.8408)" fill="#7A7A7A"/>
<path d="M0.950344 2.07338e-06V7.74522H2.07159e-06V2.07338e-06H0.950344Z" transform="translate(134.27 44.7049)" fill="#7A7A7A"/>
<path d="M2.07159e-06 0.135881C0.67882 0 1.35764 2.07338e-06 2.17222 2.07338e-06C3.66562 2.07338e-06 4.61597 0.27176 5.29479 0.951166C5.97361 1.63057 6.38089 2.44586 6.38089 3.80467C6.38089 5.0276 5.97361 6.11465 5.29479 6.79406C4.61597 7.47346 3.3941 7.8811 1.9007 7.8811C1.22188 7.8811 0.543055 7.8811 0.135764 7.74522V0.135881H2.07159e-06ZM0.950344 7.06582C1.22187 7.06582 1.62917 7.06582 1.9007 7.06582C4.07291 7.06582 5.15901 5.84289 5.15901 3.80467C5.15901 1.90234 4.07291 0.815287 2.03646 0.815287C1.4934 0.815287 1.08611 0.815285 0.814582 0.951166V7.06582H0.950344Z" transform="translate(136.986 44.7049)" fill="#7A7A7A"/>
<path d="M3.93715 4.21231H0.95035V6.92994H4.34444V7.74522H-2.07159e-06V2.07338e-06H4.20867V0.815287H0.95035V3.26115H3.93715V4.21231Z" transform="translate(144.724 44.7049)" fill="#7A7A7A"/>
<path d="M0.95035 2.07338e-06V3.26115H4.75173V2.07338e-06H5.70208V7.74522H4.75173V4.21231H0.95035V7.8811H-2.07159e-06V0.135881H0.95035V2.07338e-06Z" transform="translate(152.87 44.7049)" fill="#7A7A7A"/>
<path d="M3.93714 4.21231H0.950348V6.92994H4.34444V7.74522H-4.14318e-06V2.07338e-06H4.20868V0.815287H0.950348V3.26115H3.93714V4.21231Z" transform="translate(160.473 44.7049)" fill="#7A7A7A"/>
<path d="M1.90069 5.29937L1.08611 7.74522H4.14318e-06L2.57951 0H3.80138L6.51665 7.74522H5.43055L4.61596 5.29937H1.90069ZM4.4802 4.48408L3.66562 2.1741C3.52986 1.63057 3.39409 1.22293 3.25832 0.815285C3.12256 1.22293 2.9868 1.76645 2.85104 2.1741L2.03646 4.48408H4.4802Z" transform="translate(165.36 44.8408)" fill="#7A7A7A"/>
<path d="M0 2.07338e-06H0.950341V6.92994H4.34443V7.74522H0V2.07338e-06Z" transform="translate(173.099 44.7049)" fill="#7A7A7A"/>
<path d="M2.30797 0.815285H-4.14318e-06V0H5.70207V0.815285H3.25834V7.74522H2.30797V0.815285Z" transform="translate(176.764 44.8408)" fill="#7A7A7A"/>
<path d="M0.950342 2.07338e-06V3.26115H4.75173V2.07338e-06H5.70207V7.74522H4.75173V4.21231H0.950342V7.8811H0V0.135881H0.950342V2.07338e-06Z" transform="translate(183.281 44.7049)" fill="#7A7A7A"/>
<path d="M5.83785 7.60934C5.43055 7.74522 4.75174 8.01698 3.80139 8.01698C1.62917 8.01698 4.14318e-06 6.65818 4.14318e-06 4.07644C4.14318e-06 1.63058 1.62917 2.07338e-06 4.07291 2.07338e-06C5.02326 2.07338e-06 5.70207 0.271763 5.9736 0.407644L5.70207 1.22293C5.29478 1.08705 4.75173 0.951166 4.07291 0.951166C2.30799 0.951166 1.08612 2.1741 1.08612 4.21231C1.08612 6.11465 2.17222 7.33758 4.07291 7.33758C4.75173 7.33758 5.29478 7.2017 5.70207 7.06582L5.83785 7.60934Z" transform="translate(190.476 44.7049)" fill="#7A7A7A"/>
<path d="M1.90068 5.29937L1.08611 7.74522H0L2.5795 0H3.80139L6.51666 7.74522H5.43055L4.61596 5.29937H1.90068ZM4.48021 4.48408L3.66561 2.1741C3.52985 1.63057 3.39408 1.22293 3.25832 0.815285C3.12256 1.22293 2.98681 1.76645 2.85105 2.1741L2.03646 4.48408H4.48021Z" transform="translate(196.857 44.8408)" fill="#7A7A7A"/>
<path d="M-4.14318e-06 0.135881C0.543051 0 1.22188 2.07338e-06 1.9007 2.07338e-06C2.98681 2.07338e-06 3.66562 0.135883 4.20868 0.679408C4.61597 1.08705 4.8875 1.49469 4.8875 2.1741C4.8875 3.26115 4.20867 3.94055 3.39409 4.21231C3.93714 4.48408 4.34444 5.0276 4.4802 5.84289C4.75173 6.92994 4.88748 7.74522 5.02325 8.01698H3.93715C3.80139 7.74522 3.66561 7.06582 3.39409 6.11465C3.12256 5.0276 2.71528 4.61996 1.9007 4.61996H0.950337V8.01698H-4.14318e-06V0.135881ZM1.08611 3.66879H2.17222C3.25833 3.66879 3.93715 3.12527 3.93715 2.1741C3.93715 1.22293 3.25833 0.679408 2.17222 0.679408C1.62917 0.679408 1.35765 0.679406 1.22188 0.815287V3.66879H1.08611Z" transform="translate(204.596 44.7049)" fill="#7A7A7A"/>
<path d="M4.07291 4.21231H0.950346V6.92994H4.34444V7.74522H4.14318e-06V2.07338e-06H4.20867V0.815287H0.950346V3.26115H3.93714V4.21231H4.07291Z" transform="translate(210.841 44.7049)" fill="#7A7A7A"/>
</svg>
