<svg width="99" height="30" viewBox="0 0 99 30" fill="none" xmlns="http://www.w3.org/2000/svg">
<path d="M5.9736 11.9108H11.6361V0H-4.74739e-07V6.11465H5.9736V11.9108Z" transform="translate(11.6983)" fill="#FA4D34"/>
<path d="M11.6361 5.85987V2.42974e-07H0V11.9745H5.9736V5.85987H11.6361Z" transform="translate(0 6.11465)" fill="#E6392A"/>
<path d="M5.66248 -2.42974e-07H2.3737e-07V11.9108H11.6983V5.79618H5.66248V-2.42974e-07Z" transform="translate(5.9736 18.0892)" fill="#FA4D34"/>
<path d="M-2.3737e-07 6.17834V11.9745H11.6361V4.85949e-07H5.66248V6.17834H-2.3737e-07Z" transform="translate(17.6719 11.9108)" fill="#E6392A"/>
<path d="M9.49478e-07 10.3822V0H2.2401V8.34395H6.59585V10.3822H9.49478e-07Z" transform="translate(39.4507 6.05096)" fill="black"/>
<path d="M8.52483 10.3822L7.59145 8.15287H3.36015L2.42678 10.3822H-9.49478e-07L4.41797 0H6.59585L11.0138 10.3822H8.52483ZM5.4758 3.05732L4.16908 6.05096H6.7203L5.4758 3.05732Z" transform="translate(46.4199 6.05096)" fill="black"/>
<path d="M-9.49478e-07 10.3822V8.78981L5.35135 1.97452H0.186676V0H8.40038V1.59236L3.11125 8.34395H8.52483V10.3822H-9.49478e-07Z" transform="translate(57.9315 6.05096)" fill="black"/>
<path d="M8.52483 10.3822L7.59145 8.15287H3.36015L2.42678 10.3822H9.49478e-07L4.41798 0H6.59585L11.0138 10.3822H8.52483ZM5.4758 3.05732L4.16908 6.05096H6.7203L5.4758 3.05732Z" transform="translate(67.1408 6.05096)" fill="black"/>
<path d="M8.21371 3.43949C8.21371 5.09554 7.59145 6.17834 6.28473 6.6879L8.83596 10.3822H6.03583L3.79573 7.07006H2.2401V10.3822H9.49478e-07V0H3.85795C5.41358 0 6.53363 0.254777 7.2181 0.828026C7.90258 1.33758 8.21371 2.2293 8.21371 3.43949ZM5.4758 4.64968C5.78692 4.3949 5.91137 4.01274 5.91137 3.43949C5.91137 2.86624 5.78692 2.48408 5.4758 2.29299C5.16467 2.10191 4.66687 1.97452 3.92017 1.97452H2.2401V5.03185H3.92017C4.66687 5.03185 5.2269 4.90446 5.4758 4.64968Z" transform="translate(79.2747 6.05096)" fill="black"/>
<path d="M7.84035 1.33758C8.83595 2.2293 9.27153 3.50318 9.27153 5.09554C9.27153 6.6879 8.77373 7.96178 7.84035 8.9172C6.90698 9.87261 5.4758 10.3185 3.4846 10.3185H-1.89896e-06V0H3.60905C5.4758 0 6.90698 0.44586 7.84035 1.33758ZM6.2225 7.51592C6.78253 7.00637 7.03143 6.17834 7.03143 5.15924C7.03143 4.14013 6.78253 3.3758 6.2225 2.80255C5.66247 2.2293 4.79133 1.97452 3.67128 1.97452H2.42678V8.28026H3.85795C4.85355 8.34395 5.66247 8.08917 6.2225 7.51592Z" transform="translate(89.7285 6.05096)" fill="black"/>
<path d="M0.933377 3.63057L-4.74739e-07 0H0.497799L0.933377 1.84713C1.05783 2.29299 1.12005 2.73885 1.18227 3.12102C1.2445 2.73885 1.36895 2.29299 1.4934 1.84713L1.9912 0H2.489L2.92458 1.84713C3.04903 2.29299 3.11125 2.73885 3.17348 3.12102C3.2357 2.73885 3.36015 2.29299 3.4846 1.84713L3.9824 0H4.4802L3.4846 3.63057H2.9868L2.55123 1.71975C2.42678 1.27389 2.36455 0.891719 2.30233 0.509554C2.2401 0.891719 2.17787 1.21019 2.05342 1.71975L1.55563 3.63057H0.933377Z" transform="translate(39.6995 21.0191)" fill="#7A7A7A"/>
<path d="M3.29793 1.84713C3.29793 3.12102 2.55122 3.75796 1.61785 3.75796C0.684473 3.75796 -9.49478e-07 2.99363 -9.49478e-07 1.91083C-9.49478e-07 0.764331 0.684477 -4.85949e-07 1.68008 -4.85949e-07C2.67568 -4.85949e-07 3.29793 0.764332 3.29793 1.84713ZM0.560025 1.91083C0.560025 2.67516 0.995602 3.3758 1.68008 3.3758C2.42678 3.3758 2.80012 2.67516 2.80012 1.84713C2.80012 1.1465 2.42678 0.382167 1.68008 0.382167C0.933377 0.382167 0.560025 1.1465 0.560025 1.91083Z" transform="translate(44.2419 20.8917)" fill="#7A7A7A"/>
<path d="M9.49478e-07 0.0636943C0.248901 0 0.560027 9.71897e-07 0.871152 9.71897e-07C1.36895 9.71897e-07 1.68008 0.0636953 1.92898 0.318472C2.11565 0.509555 2.2401 0.700637 2.2401 1.01911C2.2401 1.52866 1.92898 1.84713 1.55563 1.97452C1.80453 2.10191 1.9912 2.35669 2.05342 2.73885C2.17787 3.24841 2.2401 3.63057 2.30232 3.75796H1.80453C1.7423 3.63057 1.68008 3.3121 1.55563 2.86624C1.43118 2.35669 1.2445 2.1656 0.871152 2.1656H0.435574V3.75796H9.49478e-07V0.0636943ZM0.435574 1.71974H0.933376C1.43118 1.71974 1.7423 1.46497 1.7423 1.01911C1.7423 0.573248 1.43118 0.318472 0.933376 0.318472C0.684476 0.318472 0.560023 0.318471 0.497798 0.382166V1.71974H0.435574Z" transform="translate(48.1621 20.9554)" fill="#7A7A7A"/>
<path d="M0 9.71897e-07H0.435573V3.24841H1.9912V3.63057H0V9.71897e-07Z" transform="translate(51.0245 20.9554)" fill="#7A7A7A"/>
<path d="M0 0.0636943C0.311125 0 0.622249 9.71897e-07 0.995599 9.71897e-07C1.68007 9.71897e-07 2.11565 0.127388 2.42678 0.445859C2.7379 0.76433 2.92457 1.1465 2.92457 1.78344C2.92457 2.35669 2.7379 2.86624 2.42678 3.18471C2.11565 3.50319 1.55563 3.69427 0.871151 3.69427C0.560026 3.69427 0.248899 3.69427 0.0622241 3.63057V0.0636943H0ZM0.435573 3.3121C0.560023 3.3121 0.746701 3.3121 0.871151 3.3121C1.86675 3.3121 2.36455 2.73885 2.36455 1.78344C2.36455 0.89172 1.86675 0.382166 0.933375 0.382166C0.684475 0.382166 0.497799 0.382165 0.373349 0.445859V3.3121H0.435573Z" transform="translate(53.5135 20.9554)" fill="#7A7A7A"/>
<path d="M0.933374 3.63057L-9.49478e-07 0H0.497801L0.933374 1.84713C1.05782 2.29299 1.12005 2.73885 1.18228 3.12102C1.2445 2.73885 1.36895 2.29299 1.4934 1.84713L1.9912 0H2.489L2.92458 1.84713C3.04903 2.29299 3.11125 2.73885 3.17347 3.12102C3.2357 2.73885 3.36015 2.29299 3.4846 1.84713L3.9824 0H4.4802L3.4846 3.63057H2.9868L2.55122 1.71975C2.42677 1.27389 2.36455 0.891719 2.30233 0.509554C2.2401 0.891719 2.17788 1.21019 2.05343 1.71975L1.55562 3.63057H0.933374Z" transform="translate(56.687 21.0191)" fill="#7A7A7A"/>
<path d="M0.435574 9.71897e-07V3.63057H9.49478e-07V9.71897e-07H0.435574Z" transform="translate(61.5405 20.9554)" fill="#7A7A7A"/>
<path d="M9.49478e-07 0.0636943C0.311126 0 0.62225 9.71897e-07 0.9956 9.71897e-07C1.68008 9.71897e-07 2.11565 0.127388 2.42678 0.445859C2.7379 0.76433 2.92457 1.1465 2.92457 1.78344C2.92457 2.35669 2.7379 2.86624 2.42678 3.18471C2.11565 3.50319 1.55563 3.69427 0.871152 3.69427C0.560027 3.69427 0.2489 3.69427 0.062225 3.63057V0.0636943H9.49478e-07ZM0.435574 3.3121C0.560024 3.3121 0.746702 3.3121 0.871152 3.3121C1.86675 3.3121 2.36455 2.73885 2.36455 1.78344C2.36455 0.89172 1.86675 0.382166 0.933376 0.382166C0.684476 0.382166 0.4978 0.382165 0.37335 0.445859V3.3121H0.435574Z" transform="translate(62.785 20.9554)" fill="#7A7A7A"/>
<path d="M1.80453 1.97452H0.435577V3.24841H1.9912V3.63057H-9.49478e-07V9.71897e-07H1.92897V0.382166H0.435577V1.52866H1.80453V1.97452Z" transform="translate(66.3318 20.9554)" fill="#7A7A7A"/>
<path d="M0.435577 9.71897e-07V1.52866H2.17787V9.71897e-07H2.61345V3.63057H2.17787V1.97452H0.435577V3.69427H-9.49478e-07V0.0636943H0.435577V9.71897e-07Z" transform="translate(70.0653 20.9554)" fill="#7A7A7A"/>
<path d="M1.80452 1.97452H0.435576V3.24841H1.9912V3.63057H-1.89896e-06V9.71897e-07H1.92898V0.382166H0.435576V1.52866H1.80452V1.97452Z" transform="translate(73.55 20.9554)" fill="#7A7A7A"/>
<path d="M0.871148 2.48408L0.497799 3.63057H1.89896e-06L1.18227 0H1.7423L2.9868 3.63057H2.489L2.11565 2.48408H0.871148ZM2.05342 2.10191L1.68008 1.01911C1.61785 0.76433 1.55562 0.573247 1.4934 0.382165C1.43117 0.573247 1.36895 0.828025 1.30673 1.01911L0.933377 2.10191H2.05342Z" transform="translate(75.79 21.0191)" fill="#7A7A7A"/>
<path d="M0 9.71897e-07H0.435573V3.24841H1.9912V3.63057H0V9.71897e-07Z" transform="translate(79.3369 20.9554)" fill="#7A7A7A"/>
<path d="M1.05782 0.382165H-1.89896e-06V0H2.61345V0.382165H1.4934V3.63057H1.05782V0.382165Z" transform="translate(81.0169 21.0191)" fill="#7A7A7A"/>
<path d="M0.435573 9.71897e-07V1.52866H2.17788V9.71897e-07H2.61345V3.63057H2.17788V1.97452H0.435573V3.69427H0V0.0636943H0.435573V9.71897e-07Z" transform="translate(84.0038 20.9554)" fill="#7A7A7A"/>
<path d="M2.67568 3.56688C2.489 3.63057 2.17788 3.75796 1.7423 3.75796C0.746704 3.75796 1.89896e-06 3.12102 1.89896e-06 1.91083C1.89896e-06 0.764332 0.746702 9.71897e-07 1.86675 9.71897e-07C2.30233 9.71897e-07 2.61345 0.127389 2.7379 0.191083L2.61345 0.573248C2.42678 0.509554 2.17788 0.445859 1.86675 0.445859C1.05783 0.445859 0.497804 1.01911 0.497804 1.97452C0.497804 2.86624 0.995602 3.43949 1.86675 3.43949C2.17788 3.43949 2.42678 3.3758 2.61345 3.3121L2.67568 3.56688Z" transform="translate(87.3017 20.9554)" fill="#7A7A7A"/>
<path d="M0.871146 2.48408L0.497802 3.63057H0L1.18227 0H1.7423L2.9868 3.63057H2.489L2.11565 2.48408H0.871146ZM2.05343 2.10191L1.68007 1.01911C1.61785 0.76433 1.55562 0.573247 1.4934 0.382165C1.43117 0.573247 1.36895 0.828025 1.30673 1.01911L0.933375 2.10191H2.05343Z" transform="translate(90.2263 21.0191)" fill="#7A7A7A"/>
<path d="M-1.89896e-06 0.0636943C0.248898 0 0.560029 9.71897e-07 0.871154 9.71897e-07C1.36895 9.71897e-07 1.68008 0.0636953 1.92898 0.318472C2.11565 0.509555 2.2401 0.700637 2.2401 1.01911C2.2401 1.52866 1.92897 1.84713 1.55562 1.97452C1.80452 2.10191 1.9912 2.35669 2.05343 2.73885C2.17788 3.24841 2.2401 3.63057 2.30232 3.75796H1.80453C1.7423 3.63057 1.68007 3.3121 1.55562 2.86624C1.43117 2.35669 1.2445 2.1656 0.871154 2.1656H0.435571V3.75796H-1.89896e-06V0.0636943ZM0.4978 1.71974H0.995602C1.4934 1.71974 1.80453 1.46497 1.80453 1.01911C1.80453 0.573248 1.4934 0.318472 0.995602 0.318472C0.746702 0.318472 0.622254 0.318471 0.560029 0.382166V1.71974H0.4978Z" transform="translate(93.7731 20.9554)" fill="#7A7A7A"/>
<path d="M1.86675 1.97452H0.435575V3.24841H1.9912V3.63057H1.89896e-06V9.71897e-07H1.92897V0.382166H0.435575V1.52866H1.80452V1.97452H1.86675Z" transform="translate(96.6354 20.9554)" fill="#7A7A7A"/>
</svg>
