<svg width="79" height="79" viewBox="0 0 79 79" fill="none" xmlns="http://www.w3.org/2000/svg">
<mask id="mask0" mask-type="alpha" maskUnits="userSpaceOnUse" x="0" y="0" width="79" height="79">
<rect width="79" height="79" rx="3" fill="#C4C4C4"/>
</mask>
<g mask="url(#mask0)">
<path d="M42.815 40.8138H5.05782C2.23485 40.8138 0 38.5919 0 35.7852V1.16945C0 0.46778 0.470495 0 1.17624 0H46.8142C47.52 0 47.9905 0.46778 47.9905 1.16945V35.7852C47.9905 38.5919 45.638 40.8138 42.815 40.8138ZM2.35247 2.3389V35.7852C2.35247 37.3055 3.52871 38.4749 5.05782 38.4749H42.815C44.3441 38.4749 45.5204 37.3055 45.5204 35.7852V2.3389H2.35247Z" transform="translate(15.0046 24.1862)" fill="black"/>
<path d="M46.819 10.5251H1.181C0.710508 10.5251 0.240013 10.2912 0.12239 9.82339C-0.112858 9.35561 0.00476593 8.88783 0.357637 8.53699L8.5913 0.350835C8.82654 0.116945 9.06179 0 9.41466 0H38.5853C38.9382 0 39.1735 0.116945 39.4087 0.350835L47.6424 8.53699C47.9952 8.88783 48.1129 9.35561 47.8776 9.82339C47.6424 10.2912 47.2895 10.5251 46.819 10.5251ZM4.00397 8.18616H43.8784L37.9972 2.3389H9.88516L4.00397 8.18616Z" transform="translate(15 16)" fill="black"/>
<path d="M11.5271 19.2959C10.8214 19.2959 10.2333 19.179 9.52752 18.9451C8.58653 18.5943 7.52792 18.5943 6.58693 18.9451C4.35208 19.6468 1.9996 19.179 0.352871 17.5418C0.117624 17.3079 0 17.074 0 16.7231V1.16945C0 0.46778 0.470495 0 1.17624 0H14.9382C15.644 0 16.1144 0.46778 16.1144 1.16945V16.7231C16.1144 17.074 15.9968 17.3079 15.7616 17.5418C14.703 18.7112 13.1739 19.2959 11.5271 19.2959ZM8.11603 16.3723C8.82178 16.3723 9.64514 16.4893 10.3509 16.7231C11.5271 17.074 12.821 16.957 13.8796 16.1384V2.3389H2.4701V16.1384C3.41109 16.957 4.70495 17.074 5.99881 16.7231C6.58693 16.4893 7.29267 16.3723 8.11603 16.3723Z" transform="translate(30.884 24.1862)" fill="black"/>
<path d="M14.9382 10.5251H1.17624C0.823366 10.5251 0.470495 10.4081 0.235247 10.0573C-2.23517e-07 9.70644 0 9.35561 0 9.00477L2.4701 0.818616C2.58772 0.350835 3.05822 0 3.64633 0H12.4681C12.9386 0 13.4091 0.350835 13.6443 0.818616L16.1144 9.00477C16.2321 9.35561 16.1144 9.70644 15.8792 10.0573C15.7616 10.4081 15.4087 10.5251 14.9382 10.5251ZM2.82297 8.18616H13.4091L11.6447 2.3389H4.58732L2.82297 8.18616Z" transform="translate(30.884 16)" fill="black"/>
<path d="M1.17624 10.5251C0.470495 10.5251 0 10.0573 0 9.35561V1.16945C0 0.46778 0.470495 0 1.17624 0C1.88198 0 2.35247 0.46778 2.35247 1.16945V9.35561C2.35247 10.0573 1.76436 10.5251 1.17624 10.5251Z" transform="translate(37.8237 16)" fill="black"/>
<path d="M18 9C18 13.9706 13.9706 18 9 18C4.02944 18 0 13.9706 0 9C0 4.02944 4.02944 0 9 0C13.9706 0 18 4.02944 18 9Z" transform="translate(55 12)" fill="#E6392A"/>
<path d="M6.006 13H3.178V7.26L1.596 8.828L0 7.162L3.57 3.662H6.006V13Z" transform="translate(60 13)" fill="white"/>
</g>
</svg>
