<svg width="16" height="9" viewBox="0 0 16 9" fill="none" xmlns="http://www.w3.org/2000/svg">
<path d="M0.272273 1.55303C-0.0861129 1.19775 -0.086113 0.621735 0.272273 0.266458C0.630658 -0.0888193 1.21172 -0.0888193 1.5701 0.266458L8.73121 7.36545C9.0896 7.72073 9.0896 8.29675 8.73121 8.65203C8.37283 9.0073 7.79177 9.0073 7.43338 8.65203L0.272273 1.55303Z" transform="translate(0 9) rotate(-90)" fill="black"/>
<path d="M7.1953 7.53837C7.56543 7.17145 8.16553 7.17145 8.53567 7.53837C8.9058 7.90529 8.9058 8.50019 8.53567 8.86711L1.61797 15.7248C1.24783 16.0917 0.647731 16.0917 0.277599 15.7248C-0.092533 15.3579 -0.092533 14.763 0.277599 14.3961L7.1953 7.53837Z" transform="translate(0 9) rotate(-90)" fill="black"/>
</svg>
